<svg xmlns="http://www.w3.org/2000/svg" width="512" height="512" viewBox="0 0 512 512" fill="none">
  <rect width="512" height="512" rx="64" fill="#ffffff"/>
  <rect x="32" y="32" width="448" height="448" rx="48" fill="#f5f5f5" stroke="#e5e5e5" stroke-width="2"/>
  <path d="M256 120c-12 0-24 4.8-33 13.5L165 194l-12.6 11.4C129 224 128 270 158 301l98 70.5 98-70.5c30-31 29-77 23-96.5l-12.6-11.4L289 133.5C280 124.8 268 120 256 120z" fill="#2563eb" opacity="0.9"/>
  <path d="M256 144c-7.2 0-14.4 3-19.8 8.1L186 207c-13.2 12-15.6 31.2-5.1 45.6L256 282l75.1-29.4c10.5-14.4 8.1-33.6-5.1-45.6l-50.2-54.9C270.4 147 263.2 144 256 144z" fill="#3b82f6"/>
  <circle cx="256" cy="210" r="30" fill="#ffffff" opacity="0.3"/>
</svg>
